# xmcd
#
# Track frame offsets:
#	150
#	38421
#	71204
#	97629
#	113181
#	127232
#	162047
#	188135
#
# Disc length: 2895 seconds
#
# Revision: 1
# Processed by: cddbd v1.5.2PL0 Copyright (c) Steve Scherf et al.
# Submitted via: audiograbber 1.83.01
#
DISCID=620b4d08
DTITLE=Gerry Mulligan - 1957 - 1
DYEAR=1900
DGENRE=Jazz
TTITLE0=Round Midnight
TTITLE1=Sweet And Lovely
TTITLE2=Decidedly (Take 4)
TTITLE3=Stand Still
TTITLE4=Line For Lyons
TTITLE5=Battle Hymn Of The Republic
TTITLE6=Fall Out
TTITLE7=Let's Fall In Love
EXTD=
EXTT0=
EXTT1=
EXTT2=
EXTT3=
EXTT4=
EXTT5=
EXTT6=
EXTT7=
PLAYORDER=
